<svg xmlns="http://www.w3.org/2000/svg" viewBox="0 0 400 200">
  <!-- Health Icon -->
  <g id="health-icon">
    <rect x="10" y="10" width="30" height="30" rx="5" fill="#f22" />
    <rect x="20" y="15" width="10" height="20" fill="#fff" />
    <rect x="15" y="20" width="20" height="10" fill="#fff" />
  </g>
  
  <!-- Ammo Icon -->
  <g id="ammo-icon" transform="translate(60, 0)">
    <rect x="10" y="10" width="10" height="30" fill="#fc0" />
    <rect x="25" y="10" width="10" height="30" fill="#fc0" />
    <rect x="40" y="10" width="10" height="30" fill="#fc0" />
  </g>
  
  <!-- Grenade Icon -->
  <g id="grenade-icon" transform="translate(120, 0)">
    <circle cx="25" cy="20" r="15" fill="#333" />
    <rect x="23" y="5" width="4" height="7" fill="#666" />
  </g>
  
  <!-- Medkit Icon -->
  <g id="medkit-icon" transform="translate(180, 0)">
    <rect x="10" y="15" width="30" height="20" rx="2" fill="#f22" />
    <rect x="20" y="10" width="10" height="30" fill="#fff" />
    <rect x="10" y="20" width="30" height="10" fill="#fff" />
  </g>
  
  <!-- Crosshair Types -->
  <g id="crosshair-1" transform="translate(0, 60)">
    <circle cx="25" cy="25" r="10" fill="none" stroke="#fff" stroke-width="1.5" />
    <line x1="25" y1="15" x2="25" y2="35" stroke="#fff" stroke-width="1.5" />
    <line x1="15" y1="25" x2="35" y2="25" stroke="#fff" stroke-width="1.5" />
  </g>
  
  <g id="crosshair-2" transform="translate(60, 60)">
    <line x1="25" y1="15" x2="25" y2="19" stroke="#fff" stroke-width="1.5" />
    <line x1="25" y1="31" x2="25" y2="35" stroke="#fff" stroke-width="1.5" />
    <line x1="15" y1="25" x2="19" y2="25" stroke="#fff" stroke-width="1.5" />
    <line x1="31" y1="25" x2="35" y2="25" stroke="#fff" stroke-width="1.5" />
    <circle cx="25" cy="25" r="2" fill="#fff" />
  </g>
  
  <g id="crosshair-3" transform="translate(120, 60)">
    <line x1="20" y1="20" x2="30" y2="30" stroke="#fff" stroke-width="1.5" />
    <line x1="20" y1="30" x2="30" y2="20" stroke="#fff" stroke-width="1.5" />
  </g>
  
  <!-- Minimap Objects -->
  <g id="minimap-player" transform="translate(0, 120)">
    <circle cx="25" cy="25" r="4" fill="#fff" />
    <polygon points="25,18 21,27 25,25 29,27" fill="#fff" />
  </g>
  
  <g id="minimap-enemy" transform="translate(60, 120)">
    <circle cx="25" cy="25" r="3" fill="#f22" />
  </g>
  
  <g id="minimap-building" transform="translate(120, 120)">
    <rect x="20" y="20" width="10" height="10" fill="#666" />
  </g>
</svg>
